<?xml version="1.0" encoding="UTF-8"?>
<!-- Generator: Adobe Illustrator 25.2.0, SVG Export Plug-In . SVG Version: 6.00 Build 0)  -->
<svg version="1.1" id="Layer_1" xmlns="http://www.w3.org/2000/svg" xmlns:xlink="http://www.w3.org/1999/xlink" x="0px" y="0px" viewBox="0 0 319.31 177.5" style="enable-background:new 0 0 319.31 177.5;" xml:space="preserve">
<style type="text/css">
	.st0{fill:#1D1D1B;}
	.st1{fill:#ED1C22;}
	.st2{fill:url(#SVGID_1_);}
	.st3{fill:#3AB250;}
	.st4{fill:#FFFFFF;}
	.st5{fill:url(#SVGID_2_);}
</style>
<g>
	<path class="st0" d="M172.59,101.25h0.06c0.08,0,0.12,0.08,0.14,0.25c-0.32,1.42-0.48,2.36-0.48,2.81c0,2,0.71,3.68,2.13,5.05   c1.93,1.91,2.89,3.09,2.89,3.53c0.13,0.24,0.2,0.51,0.2,0.81v0.5c0,1.08-0.49,2.18-1.46,3.28l-0.36,0.31   c0,0.94,0.82,1.61,2.47,2.02c0.62,0.09,1.53,0.16,2.75,0.2l-0.03,2.92h-0.84c-2.43,0-4.01-0.95-4.74-2.86   c-0.09-0.62-0.14-1.04-0.14-1.26V118c-1.37,0.45-5.46,0.81-12.29,1.09h-4.4c-7.11,0-10.66-2.24-10.66-6.73   c0-2.39,1.2-5.12,3.59-8.19l0.2-0.06l0.08,0.14c0,0.09-0.57,1.11-1.71,3.06c-0.64,1.44-0.95,2.72-0.95,3.84   c0,1.53,0.86,2.8,2.58,3.79c1.85,0.94,4.24,1.4,7.15,1.4c9.56-0.21,14.97-0.47,16.24-0.79c0.11,0,0.47-0.05,1.07-0.14   c0-0.45-1.09-1.8-3.28-4.07c-1.38-1.68-2.08-3.32-2.08-4.91v-0.22c0-1.83,0.58-3.45,1.74-4.85L172.59,101.25z"/>
	<path class="st1" d="M155.95,96.6c0.45,0,1.46,0.89,3.03,2.66c0.3,0.22,0.51,0.34,0.64,0.34h0.08c0.19,0,0.72-0.49,1.6-1.46   c0.86-0.8,1.59-1.21,2.19-1.21c1.12,0,2.36,0.85,3.7,2.55c0.58,0.51,0.87,0.78,0.87,0.81v0.11c-0.84,0.94-1.58,1.43-2.22,1.49   h-0.25c-0.5,0-1.38-0.74-2.64-2.22c-0.5-0.51-0.86-0.77-1.07-0.79c-0.22,0-0.78,0.5-1.66,1.51c-0.82,0.77-1.56,1.15-2.22,1.15   c-1.08,0-2.15-0.67-3.2-2.02c-0.02,0-0.47-0.44-1.35-1.32v-0.14C154.42,97.09,155.24,96.6,155.95,96.6z"/>
	<path class="st0" d="M184.84,104.56l0.06,0.11c-0.32,1.12-0.48,1.95-0.48,2.47c0,2.02,1.21,4.23,3.62,6.62   c1.61,1.74,2.41,2.77,2.41,3.09c0,0.26,0.02,0.41,0.06,0.45c0,1.08-0.34,2.18-1.01,3.28c-1.5,1.57-3.05,2.36-4.66,2.36H181v-2.92   c2.71-0.02,4.5-0.09,5.36-0.22c1.65-0.37,2.54-0.82,2.69-1.35v-0.11c-3.29-3.37-4.95-5.26-4.96-5.69c-0.8-1.16-1.21-2.38-1.21-3.67   c0-1.46,0.63-2.91,1.88-4.35L184.84,104.56z"/>
	<path class="st1" d="M182.94,125.74h0.14c0.88,0.88,1.32,1.33,1.32,1.35c1.35,1.05,2.02,2.11,2.02,3.2c0,0.65-0.38,1.39-1.15,2.22   c-1.01,0.88-1.51,1.43-1.51,1.66c0.02,0.21,0.28,0.56,0.78,1.07c1.48,1.25,2.22,2.13,2.22,2.64v0.25   c-0.06,0.64-0.55,1.37-1.49,2.22h-0.11c-0.04,0-0.31-0.29-0.81-0.87c-1.7-1.35-2.55-2.58-2.55-3.7c0-0.6,0.4-1.33,1.21-2.19   c0.97-0.88,1.46-1.41,1.46-1.6v-0.08c0-0.13-0.11-0.35-0.34-0.64c-1.78-1.57-2.66-2.58-2.66-3.03   C181.45,127.5,181.95,126.68,182.94,125.74z"/>
	<path class="st0" d="M205.35,122.15c0,0.47-0.04,1.06-0.11,1.77c-0.22,1.5-0.61,2.98-1.16,4.46c-0.55,1.48-1.32,2.78-2.31,3.9   c-0.95,1.07-1.95,1.93-2.99,2.58c-1.04,0.65-2.02,1.17-2.93,1.54c-1.07,0.41-2.13,0.72-3.2,0.93c0.11-0.34,0.04-0.69-0.21-1.05   c-0.25-0.37-0.63-0.6-1.14-0.72c-0.22-0.04-0.54-0.1-0.94-0.18c-0.4-0.08-0.83-0.17-1.28-0.27c-2.43-0.51-4.4-1.18-5.92-2.02   c-1.51-0.84-2.86-2.22-4.04-4.12c-0.62-0.99-0.87-1.58-0.76-1.77c0-0.04,0.1,0.1,0.31,0.41c0.21,0.31,0.45,0.66,0.73,1.05   c1.29,1.72,2.74,3.02,4.35,3.91c1.61,0.89,3.68,1.38,6.23,1.47c1.44,0.06,2.88-0.08,4.32-0.42c1.44-0.34,2.79-0.86,4.04-1.57   c1.25-0.71,2.36-1.62,3.31-2.72c0.95-1.1,1.66-2.38,2.13-3.84c0.32-0.99,0.42-1.96,0.31-2.92c-0.04-0.49-0.19-0.88-0.45-1.19   c-0.26-0.31-0.45-0.5-0.56-0.58c-0.09-0.09-0.17-0.12-0.22-0.08l-0.11,0.08c-0.04,0.15-0.29,0.41-0.76,0.79   c-0.47,0.37-0.99,0.37-1.57,0c-0.36-0.22-0.59-0.5-0.72-0.81c-0.12-0.32-0.17-0.63-0.14-0.94c0.03-0.31,0.09-0.59,0.18-0.86   c0.09-0.26,0.16-0.46,0.2-0.59c0.13-0.3,0.29-0.64,0.48-1.02c0.19-0.38,0.43-0.68,0.74-0.9c0.31-0.21,0.67-0.3,1.08-0.27   c0.41,0.04,0.89,0.32,1.43,0.84c0.41,0.54,0.82,1.15,1.23,1.82c0.6,0.77,1.66,1.15,3.2,1.15v2.92   C207.01,122.94,206.1,122.67,205.35,122.15z"/>
	<path class="st0" d="M208.57,121.79c-0.19,0.77-0.36,1.15-0.5,1.15v-2.92c1.38-1.53,2.52-2.48,3.42-2.83   c0.32-0.07,0.48-0.15,0.48-0.22c-0.32-1.37-1.53-3.28-3.65-5.75c-1.8-1.87-3.81-3.79-6.06-5.75c-1.61-1.2-4.47-3.87-8.58-8.02   c-4.6-5.09-6.9-10.23-6.9-15.43v-0.65c0-4.13,1.59-7.82,4.77-11.05c4.17-3.87,10.27-5.81,18.29-5.81l0.06,0.11v25.89   c0,1.16-0.02,2.89-0.06,5.19h-0.08V64.82c-7.48,0-13.29,1.81-17.45,5.44c-2.92,2.84-4.38,6-4.38,9.48v0.76   c0,6.12,3.23,12.02,9.68,17.73c0.95,0.93,3.89,3.53,8.81,7.8c3.01,2.88,4.52,4.45,4.52,4.71c1.5,1.93,2.24,3.38,2.24,4.35v0.51   c0,0.9-0.32,1.94-0.95,3.11c-0.34,0.13-0.58,0.2-0.73,0.2v0.03c0,0.69,0.73,1.06,2.19,1.09v2.92c-0.86,0-1.67-0.65-2.44-1.96   c-0.21-0.49-0.31-1.09-0.31-1.82v-0.08c-0.64,0.19-1.18,0.53-1.63,1.04C209,120.46,208.76,121.02,208.57,121.79z"/>
	<path class="st0" d="M219.79,29.35l0.06,0.25v87.22c0,0.67-0.5,1.81-1.51,3.42c-0.77,1.07-2.09,1.93-3.95,2.58   c-0.24,0.08-0.49,0.11-0.73,0.11v-2.95h0.06c0.75,0,1.99-0.46,3.73-1.37c0.17-0.15,0.25-0.33,0.25-0.53   c0.11-27.64,0.17-76.34,0.17-87.43c0.99-2.62,1.59-1.04,1.8-1.3H219.79z"/>
	<path class="st0" d="M226.68,60.83c0.06,0.09,0.08,0.19,0.08,0.28v49.05c0,3.38-0.94,6.93-2.81,10.63   c-0.67,1.14-1.5,2.35-2.47,3.62c-1.93,2.09-3.23,3.35-3.9,3.76c-0.13,0.15-0.61,0.52-1.43,1.12l-0.14-0.06   c2.58-2.52,4.05-4.11,4.4-4.74c1.85-2.22,3.09-4.95,3.73-8.19c0.34-1.55,0.5-4.34,0.5-8.36c0.02-10.72,0.07-21.1,0.14-42.88   c0.84-2.19,1.4-3.59,1.68-4.21C226.5,60.85,226.56,60.84,226.68,60.83z"/>
	<path class="st0" d="M244.14,101.06l0.06,0.11c0,0.04-0.51,0.53-1.54,1.49c-1.07,1.29-1.86,2.49-2.38,3.59   c-0.8,1.95-1.21,3.59-1.21,4.94c0,1.22,0.22,2.2,0.65,2.95c0.88-2.04,1.57-3.32,2.08-3.84h0.25c0.43,0.34,0.96,1.04,1.6,2.1   c0.67,1.25,1.01,3.02,1.01,5.3c0,1.65-0.34,3.16-1.01,4.54l-0.14,0.11h-0.11c-1.08-0.19-2.67-1.65-4.77-4.4   c-0.22,0.99-0.85,2.04-1.88,3.14c-1.2,0.84-1.98,1.51-2.36,2.02c-0.13,0.13-0.25,0.45-0.37,0.95c0,1.12,1.08,2.28,3.23,3.48   c2.13,1.1,5.24,2.48,9.34,4.12c2.54,1.07,5.05,2.37,7.52,3.93c1.01,0.75,2.11,1.67,3.31,2.78c1.63,1.76,2.79,3.51,3.48,5.24   c1.01,2.58,1.51,5.02,1.51,7.32c0,3.83-1.26,7.88-3.79,12.15c-0.62,0.97-0.95,1.46-1.01,1.46h-0.14v-0.03   c0-0.08,0.46-0.92,1.37-2.52c1.98-3.89,2.97-7.42,2.97-10.6v-0.9c0-3.12-1.13-6.25-3.39-9.4c-1.31-1.63-2.55-2.82-3.73-3.56   c-1.87-1.25-3.9-2.35-6.09-3.28c-2.43-0.97-6.33-2.4-11.7-4.29c-2.67-1.12-4.23-2.15-4.66-3.09c-0.13-0.45-0.2-0.7-0.2-0.76   c0-1.61,1.29-3.8,3.87-6.59c1.08-1.25,1.63-3.1,1.63-5.55c0.26-2.65,0.68-4.68,1.26-6.09c0.52-1.31,1.21-2.55,2.08-3.73   c1.03-1.29,2.07-2.32,3.11-3.09H244.14z"/>
	<path class="st0" d="M259.62,122.15c0,0.47-0.04,1.06-0.11,1.77c-0.22,1.5-0.61,2.98-1.16,4.46c-0.55,1.48-1.32,2.78-2.31,3.9   c-0.95,1.07-1.95,1.93-2.99,2.58c-1.04,0.65-2.02,1.17-2.93,1.54c-1.07,0.41-2.13,0.72-3.2,0.93c0.11-0.34,0.04-0.69-0.21-1.05   c-0.25-0.37-0.63-0.6-1.14-0.72c-0.22-0.04-0.54-0.1-0.94-0.18c-0.4-0.08-0.83-0.17-1.28-0.27c-2.43-0.51-4.4-1.18-5.92-2.02   c-1.51-0.84-2.86-2.22-4.04-4.12c-0.62-0.99-0.87-1.58-0.76-1.77c0-0.04,0.1,0.1,0.31,0.41c0.21,0.31,0.45,0.66,0.73,1.05   c1.29,1.72,2.74,3.02,4.35,3.91c1.61,0.89,3.68,1.38,6.23,1.47c1.44,0.06,2.88-0.08,4.32-0.42c1.44-0.34,2.79-0.86,4.04-1.57   c1.25-0.71,2.36-1.62,3.31-2.72c0.95-1.1,1.66-2.38,2.13-3.84c0.32-0.99,0.42-1.96,0.31-2.92c-0.04-0.49-0.19-0.88-0.45-1.19   s-0.45-0.5-0.56-0.58c-0.09-0.09-0.17-0.12-0.22-0.08l-0.11,0.08c-0.04,0.15-0.29,0.41-0.76,0.79c-0.47,0.37-0.99,0.37-1.57,0   c-0.36-0.22-0.59-0.5-0.72-0.81c-0.12-0.32-0.17-0.63-0.14-0.94c0.03-0.31,0.09-0.59,0.18-0.86c0.09-0.26,0.16-0.46,0.2-0.59   c0.13-0.3,0.29-0.64,0.48-1.02c0.19-0.38,0.43-0.68,0.74-0.9c0.31-0.21,0.67-0.3,1.08-0.27c0.41,0.04,0.89,0.32,1.43,0.84   c0.41,0.54,0.82,1.15,1.23,1.82c0.6,0.77,1.66,1.15,3.2,1.15v2.92C261.29,122.94,260.37,122.67,259.62,122.15z"/>
	<path class="st0" d="M295.92,120.13c-0.06,0-0.42-0.01-1.09-0.03h-2.97c-8.66,0-14.35-0.42-17.08-1.26v-0.03   c1.61-0.41,3.23-0.9,4.88-1.46c1.01-1.08,1.51-1.92,1.51-2.5v-0.22c0-0.34-0.55-0.93-1.66-1.8c-3.44-2.39-5.16-4.68-5.16-6.87   c0-0.32,0.07-0.92,0.2-1.8c0-0.06-0.04-0.09-0.11-0.11h-0.06c-0.99,1.31-1.49,2.49-1.49,3.53v0.7c0,1.48,1.07,3.25,3.23,5.33   c1.8,1.51,2.69,2.29,2.69,2.33l-0.08,0.17c-3.1,1.51-4.71,2.34-4.82,2.47c-3.63-1.05-6.35-2.7-8.16-4.96   c-0.58-0.71-1.18-1.66-1.8-2.83h-0.06c-0.47,1.42-0.77,2.38-0.9,2.89c0.37,1.18,0.56,2.25,0.56,3.23v0.06   c0,1.01-0.25,2.03-0.76,3.06h-0.45v2.92h6.51c3.1,0,11.63-0.08,25.58-0.25c0.86-1.25,1.37-2.07,1.54-2.44L295.92,120.13z    M268.85,120.02h-5.75c0.69-1.63,1.04-3.01,1.04-4.15c1.83,2.19,3.4,3.55,4.71,4.1V120.02z"/>
	<path class="st1" d="M264.87,127h0.08c0.3,0.3,1.43,1.28,3.39,2.95c0.32,0.37,0.48,0.68,0.48,0.93c0,0.75-0.37,1.53-1.12,2.36   h-0.11c-0.9-0.88-2.09-1.86-3.59-2.95c-0.32-0.34-0.48-0.64-0.48-0.9C263.58,128.73,264.03,127.94,264.87,127z"/>
	<path class="st1" d="M272.11,94.89h0.08c0.3,0.3,1.43,1.28,3.39,2.95c0.32,0.37,0.48,0.68,0.48,0.93c0,0.75-0.37,1.53-1.12,2.36   h-0.11c-0.9-0.88-2.09-1.86-3.59-2.95c-0.32-0.34-0.48-0.64-0.48-0.9C270.82,96.62,271.26,95.82,272.11,94.89z"/>
	<path class="st0" d="M149.18,33.09l0.72,1.25c-0.13,1.32-2.59,4.9-7.4,10.73c3.28,6.31,4.94,9.91,4.98,10.82l-1.66,1.48   c-0.79,0-2.97-3.45-6.55-10.34l-1.25,1.13c0.02,0.87-0.34,3.28-1.08,7.24c-0.47,1.51-1.39,1.94-2.75,1.31l-0.69-1.25   c0.93-6.61,1.79-14.03,2.59-22.26c1.22-0.41,2.38-0.26,3.46,0.46l-1.16,9.94c3.33-3.15,6.11-6.66,8.35-10.52   C147.64,33.08,148.45,33.09,149.18,33.09z"/>
	<path class="st0" d="M157.97,53.6c-0.86,1.22-1.95,1.84-3.28,1.84c-0.61,0-1.26-0.13-1.96-0.39c-1.85-0.65-2.77-2.25-2.77-4.8   c0-0.56,0.05-1.18,0.14-1.85c0.06-0.45,0.15-0.89,0.26-1.32c0.72-2.93,1.35-4.84,1.89-5.74c0.4-0.66,0.93-0.99,1.59-0.99   c0.22,0,0.46,0.04,0.71,0.11c1,0.31,1.26,0.96,0.78,1.98c-0.94,1.98-1.51,3.72-1.69,5.23c-0.19,1.51-0.14,2.66,0.14,3.43   c0.49,1.39,2.04,1.02,4.64-1.11l0.53-4.43l0.35-3.48c0.08-0.72,0.86-1.16,2.35-1.34c0.08-0.04,0.16-0.05,0.23-0.05   c0.4,0,0.6,0.53,0.6,1.59c0,0.65-0.08,1.5-0.23,2.56l-0.9,9.41c-1.26,0.88-2.19,1.32-2.79,1.32c-0.35,0-0.59-0.16-0.71-0.48   L157.97,53.6z"/>
	<path class="st0" d="M171.4,47.05c-2.8,5.67-4.78,8.53-5.95,8.56c-0.73,0-1.2-0.82-1.41-2.47l0.35-1.16l-1.06-10.2l1.06-1.98h0.71   c1.18,1.15,1.77,2.97,1.77,5.44v1.48l0.14,2.08l4.55-8.49c0.73-0.69,1.35-0.75,1.86-0.18c0.51,0.58,0.8,1.03,0.86,1.36   c0.07,0.33,0,0.68-0.19,1.06c0.19,0.79,0.28,1.68,0.28,2.68v1.48l-0.02,2.74l5.08-9.3c0.58-1.28,1.21-1.64,1.9-1.06   c0.69,0.58,1.09,1.3,1.19,2.17c-2.19,4.65-4.88,9.43-8.08,14.35c-1.72,0-2.68-0.82-2.9-2.47l-0.02-1.31L171.4,47.05z"/>
	<path class="st0" d="M190.8,53.6c-0.86,1.22-1.95,1.84-3.28,1.84c-0.61,0-1.27-0.13-1.96-0.39c-1.85-0.66-2.77-2.26-2.77-4.8   c0-0.56,0.05-1.18,0.14-1.85c0.49-3.62,2.78-6.32,6.85-8.09c0.58-0.19,1.08-0.28,1.52-0.28c0.89,0,1.47,0.4,1.73,1.2l1.45-0.49   c0.55-0.21,0.83,0.3,0.83,1.54c0,0.65-0.08,1.5-0.23,2.56l-0.97,10.15c-1.62,0.82-2.74,0.72-3.34-0.32L190.8,53.6z M186.6,51.09   c0.49,1.39,2.04,1.02,4.64-1.11l0.6-4.78c-0.18-1.08-0.88-1.38-2.1-0.9c-1.22,0.48-2.18,1.39-2.86,2.72   C186.2,48.35,186.11,49.71,186.6,51.09z"/>
	<path class="st0" d="M200.58,52.38c-0.11,1.58-0.64,2.5-1.59,2.77c-0.19,0.04-0.36,0.05-0.51,0.05c-1.02,0-1.52-0.78-1.5-2.33   c0-0.02,0-0.04,0-0.05l1.39-10.52c0.04-1.71,0.86-2.56,2.49-2.56c0.12-0.02,0.23-0.04,0.34-0.04c0.59,0,0.84,0.34,0.74,1.02   l-0.41,2.82L200.58,52.38z"/>
	<path class="st1" d="M201.08,32.6c1.31-0.16,2.01,0.69,2.1,2.56c0.07,1.67-0.51,2.51-1.73,2.51c-0.15,0-0.31-0.01-0.46-0.02   c-1.42-0.2-2.14-0.92-2.14-2.15c0-0.14,0.01-0.28,0.04-0.41C199.04,33.59,199.77,32.76,201.08,32.6z"/>
	<path class="st0" d="M209.22,42.9l-0.09,0.65l-0.95,8.83c-0.11,1.58-0.64,2.5-1.59,2.77c-0.19,0.04-0.36,0.05-0.51,0.05   c-1.02,0-1.53-0.78-1.52-2.33c0.01-0.02,0.02-0.04,0.02-0.05l1.24-9.69l-0.16,0.02c-1.57,0.18-2.57-0.18-3-1.06   c-0.07-0.18-0.12-0.34-0.16-0.49c-0.19-1.01,0.48-1.65,2.01-1.91c0.02-0.01,0.04-0.02,0.05-0.02l1.71-0.09l0.28-2.17   c0.02-1.71,0.85-2.56,2.47-2.56c0.12-0.02,0.23-0.04,0.34-0.04c0.59,0,0.84,0.34,0.74,1.02l-0.46,3.58l0.99-0.12   c1.68-0.29,2.67,0.36,2.97,1.96c0.05,0.12,0.08,0.22,0.11,0.32c0.11,0.59-0.19,0.9-0.88,0.94l-1.04,0.09L209.22,42.9z"/>
	<path class="st0" d="M246.91,63.5l1.02,0.83c-0.11,1.95-0.52,2.93-1.23,2.96c-3.74,0.69-6.33,1.87-7.75,3.52   c-1.42,1.66-0.76,2.94,1.98,3.85c2.74,0.91,4.14,2.8,4.2,5.68c-1.21,2.82-3.37,5.11-6.48,6.88c-2.29,0.53-3.53,0.01-3.73-1.57   c-0.2-1.57,0.21-2.3,1.21-2.18c1.71-0.22,3.21-0.91,4.48-2.05c1.27-1.14,1.23-2.12-0.13-2.91c-4.37-1.04-6.48-2.95-6.35-5.7   c0.14-2.76,1.26-4.86,3.39-6.31C239.65,65.03,242.78,64.04,246.91,63.5z"/>
	<path class="st0" d="M253.04,73.11l-0.09,0.65l-0.95,8.8c-0.11,1.57-0.63,2.49-1.58,2.76c-0.19,0.04-0.36,0.05-0.51,0.05   c-1.02,0-1.53-0.77-1.51-2.32c0.01-0.02,0.02-0.04,0.02-0.05l1.23-9.67l-0.16,0.02c-1.56,0.18-2.56-0.18-2.99-1.06   c-0.07-0.18-0.12-0.34-0.16-0.49c-0.19-1.01,0.48-1.64,2.01-1.9c0.02-0.01,0.04-0.02,0.05-0.02l1.71-0.09l0.28-2.17   c0.02-1.7,0.84-2.55,2.46-2.55c0.12-0.02,0.23-0.04,0.33-0.04c0.59,0,0.83,0.34,0.74,1.02l-0.46,3.57l0.99-0.12   c1.68-0.29,2.66,0.36,2.96,1.95c0.05,0.12,0.08,0.22,0.11,0.32c0.11,0.59-0.19,0.9-0.88,0.93l-1.04,0.09L253.04,73.11z"/>
	<path class="st0" d="M264.32,83.78c-0.86,1.22-1.95,1.83-3.27,1.83c-0.61,0-1.26-0.13-1.95-0.39c-1.84-0.66-2.76-2.25-2.76-4.79   c0-0.56,0.05-1.18,0.14-1.85c0.49-3.62,2.77-6.3,6.83-8.06c0.57-0.19,1.08-0.28,1.51-0.28c0.89,0,1.47,0.4,1.73,1.2l1.44-0.49   c0.55-0.21,0.83,0.3,0.83,1.53c0,0.65-0.08,1.5-0.23,2.55l-0.97,10.12c-1.62,0.82-2.73,0.72-3.33-0.32L264.32,83.78z M260.13,81.28   c0.49,1.39,2.04,1.02,4.63-1.11l0.6-4.77c-0.18-1.08-0.87-1.38-2.1-0.9c-1.22,0.48-2.17,1.39-2.85,2.71   C259.73,78.54,259.64,79.89,260.13,81.28z"/>
	<path class="st0" d="M275.2,71.82c0.63-1.08,2.22-1.64,4.75-1.67c0.21,0,0.67,0.33,1.37,0.99c0.15,0.2,0.23,0.42,0.23,0.67   c0,0.48-0.26,1.06-0.77,1.74c-0.8,1.07-1.61,1.16-2.45,0.26c-2.16,0.14-3.83,3.06-5.02,8.75c-0.14,1.57-0.59,2.49-1.36,2.76   c-0.19,0.04-0.36,0.05-0.51,0.05c-0.96,0-1.44-0.69-1.44-2.08c0-0.08,0-0.16,0-0.25V83l1.87-10.37c0.07-1.7,0.91-2.55,2.53-2.55   c0.12-0.02,0.23-0.04,0.33-0.04c0.59,0,0.83,0.34,0.72,1.02L275.2,71.82z"/>
	<path class="st0" d="M288.14,69.99c0.75,0.47,1.13,1.07,1.13,1.81c0,0.41-0.11,0.86-0.33,1.34l-2.27,0.65   c-2.85,0.36-2.98,1.31-0.39,2.85c1.89,0.77,2.83,1.84,2.83,3.2c0.14,0.81,0.08,1.51-0.19,2.09c-0.97,2.17-2.84,3.35-5.6,3.52   l-1.55,0.23c-0.72-0.2-1.07-0.6-1.07-1.2v-1.27c0.25-0.9,1.09-1.26,2.52-1.07c2.97-0.75,3.31-1.8,1.02-3.15   c-2.31-0.68-3.47-2.1-3.47-4.26c0-0.12,0.01-0.24,0.02-0.37C280.95,72.52,283.4,71.06,288.14,69.99z"/>
	<linearGradient id="SVGID_1_" gradientUnits="userSpaceOnUse" x1="23.3309" y1="80.1763" x2="165.7366" y2="80.1763">
		<stop offset="0" style="stop-color:#936225"/>
		<stop offset="0.3228" style="stop-color:#AF833D"/>
		<stop offset="1" style="stop-color:#F2D478"/>
	</linearGradient>
	<path class="st2" d="M165.73,81.3c-0.14-4.07-2.04-7.25-5.7-8.96c-6.16-2.88-12.45-5.47-18.69-8.19   c-9.51-4.29-18.98-8.64-28.53-12.84c-8.27-3.64-15.45,1.1-15.52,10.18c-0.09,11.95-0.1,23.89-0.13,35.84   c-0.01,4.42,1.87,6.73,5.42,6.77c3.68,0.05,5.55-2.28,5.57-6.93c0.05-10.99,0.15-21.97,0.09-32.96c-0.01-2.53,0.57-2.87,2.83-1.83   c7.06,3.23,14.2,6.29,21.31,9.41l0,0c7.05,3.27,14.09,6.53,21.66,10.04c-32.92,18.03-65.23,35.73-97.55,53.43   c-0.15-0.18-0.31-0.35-0.46-0.53c4.15-10.23,8.29-20.46,12.44-30.68c0,0,0,0,0,0c0.96-1.34,1.8-0.42,2.66,0.14   c4.11,2.67,8.22,5.36,12.34,8.01c0.75,0.48,1.42,1.4,2.54,0.78c3.3-1.81,6.6-3.61,10.3-5.63c-7.19-4.69-13.84-9.11-20.6-13.36   c-1.78-1.12-2.13-1.98-1.28-3.99c6.03-14.34,11.9-28.75,17.83-43.13c2.94-7.13,5.89-14.26,9.08-22c1.92,5.49,3.61,10.31,5.3,15.12   c0.35,0.98,0.43,2.16,1.55,2.66c4.11,1.85,8.23,3.68,12.88,5.76c-0.47-1.63-0.71-2.64-1.05-3.61c-2.69-7.75-5.41-15.49-8.11-23.24   c-1.97-5.64-5.37-8.49-10.24-8.59c-4.93-0.1-8.49,2.58-10.74,8.03c-4.51,10.93-9.12,21.83-13.47,32.83   c-0.93,2.35-2.14,2.91-4.46,2.89c-12.48-0.1-24.97-0.05-37.45-0.04c-6.24,0.01-10.41,2.78-11.82,7.79   c-1.38,4.89,0.62,9.27,5.78,12.65c9.29,6.06,18.54,12.17,27.9,18.12c1.83,1.16,2.13,2.18,1.28,4.09   c-1.59,3.59-2.94,7.29-4.39,10.95c-3.5,7.03-6.05,14.47-9.07,21.7c-2.13,5.09-1.12,9.7,2.5,12.8c3.73,3.21,8.08,3.48,13.05,0.76   c23.92-13.07,47.83-26.15,71.74-39.23c9.15-5.01,18.3-10.02,27.43-15.07C163.84,89.08,165.89,85.79,165.73,81.3z M36.01,68.13   c12.21,0,23.68,0,35.49,0c-2.34,5.69-4.65,11.27-6.92,16.86c-0.63,1.54-1.46,0.74-2.24,0.24C53.77,79.67,45.22,74.11,36.01,68.13z    M150.02,131.3c1.18,3.33,0.99,7.06-0.78,10.12c-1.41,2.44-3.88,4.6-8.2,4.68c-2.59,0.05-5.12-0.77-7.3-2.17l-25.85-16.49   c-0.57-0.37-0.54-1.22,0.05-1.54l8.69-4.72c0.28-0.15,0.62-0.14,0.9,0.02l21.53,13.26l-6.4-20.12c-0.13-0.41,0.04-0.85,0.42-1.05   l7.93-4.43c0.48-0.27,1.1-0.04,1.28,0.48L150.02,131.3z"/>
	<g>
		<path class="st3" d="M256.55,40.67c-12.38-10.9-24.98,10.63-37.36-0.27c0.02-2.5,0.04-5,0.05-7.51    c12.38,10.9,24.98-10.63,37.36,0.27C256.58,35.66,256.57,38.17,256.55,40.67z"/>
		<path class="st4" d="M256.49,48.18c-12.38-10.9-24.98,10.63-37.36-0.27c0.02-2.5,0.04-5,0.05-7.51    c12.38,10.9,24.98-10.63,37.36,0.27C256.53,43.17,256.51,45.67,256.49,48.18z"/>
		<path class="st1" d="M256.44,55.68c-12.38-10.9-24.98,10.63-37.36-0.27c0.02-2.5,0.04-5,0.05-7.51    c12.38,10.9,24.98-10.63,37.36,0.27C256.48,50.68,256.46,53.18,256.44,55.68z"/>
		<g>
			<path class="st0" d="M219.24,32.89c2.5,4.75,5.01,8.16,7.52,10.77c-0.02,2.47-0.04,4.95-0.05,7.42     c-2.55,2.42-5.09,4.05-7.63,4.34C219.13,47.91,219.19,40.4,219.24,32.89z"/>
		</g>
	</g>
	<polygon class="st0" points="218.29,55.41 219.24,55.41 219.24,32.89 218.36,33.66  "/>
	
		<linearGradient id="SVGID_2_" gradientUnits="userSpaceOnUse" x1="404.7578" y1="-105.9176" x2="442.1175" y2="-105.9176" gradientTransform="matrix(1 7.177202e-03 -7.177202e-03 1 -186.3493 147.1641)">
		<stop offset="0" style="stop-color:#000000;stop-opacity:0.2"/>
		<stop offset="0.0851" style="stop-color:#393939;stop-opacity:0.166"/>
		<stop offset="0.1984" style="stop-color:#7F7F7F;stop-opacity:0.1206"/>
		<stop offset="0.3008" style="stop-color:#B6B6B6;stop-opacity:0.0797"/>
		<stop offset="0.3883" style="stop-color:#DEDEDE;stop-opacity:0.0447"/>
		<stop offset="0.4576" style="stop-color:#F6F6F6;stop-opacity:0.017"/>
		<stop offset="0.5" style="stop-color:#FFFFFF;stop-opacity:0"/>
		<stop offset="0.5423" style="stop-color:#F6F6F6;stop-opacity:0.017"/>
		<stop offset="0.6114" style="stop-color:#DEDEDE;stop-opacity:0.0447"/>
		<stop offset="0.6987" style="stop-color:#B6B6B6;stop-opacity:0.0797"/>
		<stop offset="0.8008" style="stop-color:#7F7F7F;stop-opacity:0.1206"/>
		<stop offset="0.9138" style="stop-color:#393939;stop-opacity:0.166"/>
		<stop offset="0.9987" style="stop-color:#000000;stop-opacity:0.2"/>
	</linearGradient>
	<path class="st5" d="M219.24,32.89c-0.02,2.5-0.04,5-0.05,7.51c-0.02,2.5-0.04,5-0.05,7.51s-0.04,5-0.05,7.51   c12.38,10.9,24.98-10.63,37.36,0.27c0.02-2.5,0.04-5,0.05-7.51c0.02-2.5,0.04-5,0.05-7.51c0.02-2.5,0.04-5,0.05-7.51   C244.23,22.26,231.62,43.79,219.24,32.89z"/>
	<path class="st0" d="M221.38,31.19c-0.01,1.38-1.14,2.5-2.52,2.49c-1.38-0.01-2.5-1.14-2.49-2.52c0.01-1.38,1.14-2.5,2.52-2.49   C220.28,28.67,221.39,29.8,221.38,31.19z"/>
</g>
</svg>